<?xml version="1.0" standalone="no"?>
<!DOCTYPE svg PUBLIC "-//W3C//DTD SVG 20010904//EN"
 "http://www.w3.org/TR/2001/REC-SVG-20010904/DTD/svg10.dtd">
<svg version="1.0" xmlns="http://www.w3.org/2000/svg"
 width="150.000000pt" height="50.000000pt" viewBox="0 0 150.000000 50.000000"
 preserveAspectRatio="xMidYMid meet">

<g transform="translate(0.000000,50.000000) scale(0.100000,-0.100000)"
fill="#000000" stroke="none">
<path d="M34 395 c-28 -43 -30 -107 -4 -153 31 -55 83 -82 159 -82 55 0 61 -2
61 -21 0 -26 11 -23 91 32 l62 41 -74 48 c-72 46 -74 46 -77 23 -3 -21 -8 -23
-56 -23 -58 0 -86 19 -86 58 0 30 26 51 71 58 29 5 39 11 37 23 -3 13 -19 17
-85 19 -78 3 -83 2 -99 -23z"/>
<path d="M250 379 c0 -18 9 -32 28 -44 81 -53 72 -54 72 8 l0 55 -50 4 c-48 3
-50 2 -50 -23z"/>
<path d="M1057 372 c-10 -10 -17 -33 -17 -50 0 -22 -5 -32 -15 -32 -8 0 -15
-9 -15 -20 0 -11 7 -20 15 -20 12 0 15 -14 15 -65 0 -51 3 -65 15 -65 12 0 15
14 15 65 0 58 2 65 20 65 18 0 20 -7 20 -65 0 -59 2 -65 20 -65 20 0 21 5 18
83 l-3 82 -37 3 c-24 2 -38 8 -38 17 0 29 13 45 36 45 27 0 33 24 8 34 -26 10
-40 7 -57 -12z"/>
<path d="M520 245 c0 -118 1 -125 20 -125 17 0 20 7 20 50 l0 50 39 0 c54 0
91 31 91 76 0 55 -28 74 -105 74 l-65 0 0 -125z m118 83 c21 -21 14 -58 -14
-68 -53 -20 -64 -14 -64 35 0 44 1 45 33 45 18 0 38 -5 45 -12z"/>
<path d="M710 205 c0 -78 2 -85 20 -85 16 0 19 8 22 63 3 59 4 62 31 65 19 2
27 9 27 23 0 21 -38 27 -57 8 -8 -8 -13 -8 -17 0 -18 28 -26 4 -26 -74z"/>
<path d="M853 266 c-22 -19 -28 -32 -28 -65 0 -50 26 -79 78 -88 31 -5 40 -1
67 25 82 83 -28 204 -117 128z m95 -28 c7 -7 12 -24 12 -38 0 -33 -17 -50 -50
-50 -33 0 -50 17 -50 50 0 33 17 50 50 50 14 0 31 -5 38 -12z"/>
<path d="M1187 272 c-32 -35 -12 -73 46 -87 15 -4 27 -14 27 -22 0 -11 -10
-14 -42 -11 -56 4 -60 -23 -6 -36 47 -12 88 12 88 50 0 20 -9 29 -46 45 -53
24 -53 45 0 41 26 -2 36 1 36 11 0 31 -78 37 -103 9z"/>
<path d="M1363 280 c-28 -11 -43 -40 -43 -82 1 -69 68 -107 135 -76 38 17 25
34 -24 30 -39 -4 -71 10 -71 29 0 5 32 9 70 9 39 0 70 2 70 5 0 3 -6 21 -14
40 -21 50 -67 67 -123 45z m75 -36 c31 -21 19 -34 -34 -34 -33 0 -44 4 -44 15
0 9 10 20 23 25 30 12 30 12 55 -6z"/>
<path d="M298 107 c-33 -22 -48 -39 -48 -54 0 -21 5 -23 50 -23 l50 0 0 55 c0
30 -1 55 -2 54 -2 0 -24 -15 -50 -32z"/>
</g>
</svg>
